#!OML:ASF F:\VICON\USERDATA\INSTALL\rory3\rory3.ASF
:FULLY-SPECIFIED
:DEGREES
28
root 0.544997130561216 18.314200682265973 -18.333772065245693 5.6009735821599325 2.583919472785851 -1.665980289575434
lfemur -38.748888757821895 -3.914210423699282 -17.291574035189633
ltibia 53.66176007395282
lfoot 6.374524492113678 -8.182039364754257
ltoes -22.54740256759682
rfemur 12.348560076627408 3.949193354050686 30.538336836622513
rtibia 25.732692359834026
rfoot 28.23985684874961 -5.559116002583576
rtoes 4.659344638537195
lowerback nan 0.7374308011670363 3.4743040391374835
upperback -2.0859730699614714 1.1912146845081626 1.6767166487517442
thorax -9.89469015170863 0.6138310656358137 0.4882560809128107
lowerneck -17.676222970878328 -4.548595175781109 -2.9859750680817485
upperneck 13.145318345450853 -5.529830770381332 3.3057318634956734
head 7.121380969373032 -2.6163217755558943 1.087843946733632
lclavicle 2.0887156998572307e-14 -1.801202100349568e-14
lhumerus -66.33016617266593 -1.7246509003874761 86.85994072501182
lradius 108.04209185296936
lwrist 29.96399501403011
lhand -22.283006070376103 5.246618076767906
lfingers nan
lthumb 4.387091833676106 35.48222335358368
rclavicle 1.977197590577542e-14 -1.8563514559020727e-14
rhumerus -38.09293067775066 18.268348590636478 -94.00746086416844
rradius 127.37009169292186
rwrist -23.586332334543343
rhand -17.57640357436638 nan
rfingers nan
rthumb 8.737377047805275 15.349002753752643
29
root 0.5799583640924518 18.311687822378317 -16.429045958522774 5.125110159261004 1.2017357321449509 -1.5859734498754794
lfemur -37.12753036316637 -3.8384724523564415 -17.58075301739909
ltibia 48.792195271556544
lfoot 5.846331142280789 -7.587624790548505
ltoes -22.00483133800545
rfemur 12.937648170711945 5.2378773994499035 30.4035549462426
rtibia 27.10383790206425
rfoot 29.2032592541873 -6.033853010060779
rtoes 10.621293440994753
lowerback nan 0.9715274809951475 3.297715788282873
upperback -1.877445276859743 1.52763904566625 1.5811548582989714
thorax -9.207429422964891 0.8373893297601644 0.39226232615658935
lowerneck -18.161464089751355 -4.575882145028809 -3.0168081990115017
upperneck 13.473184813072862 -5.457735446354155 3.3316610676387635
head 7.374103912918482 -2.6298050215309923 1.0891899029192047
lclavicle -3.841424378041739e-14 -8.906811971439168e-15
lhumerus -66.52003623144522 -1.50559563750753 86.26143067263277
lradius 108.57749606140827
lwrist 29.90393121512829
lhand -21.602073955090436 4.505642424884587
lfingers nan
lthumb 5.0521210391008955 34.71831161767386
rclavicle -3.8970324247611525e-14 -9.435378752301646e-15
rhumerus -38.5497854086057 18.113714649905923 -93.77662903225756
rradius 127.52437857230765
rwrist -23.086362016184687
rhand -18.672505573691826 nan
rfingers nan
rthumb 7.651998659942348 14.994522454803343
30
root 0.5654987350604477 18.354362036939985 -16.81315267408978 5.858743990832892 2.361880929395074 -1.7109140942398402
lfemur -36.81276054072932 -4.927034164302132 -17.459577838239937
ltibia 44.23660356964571
lfoot 6.013848546632865 -8.28776871616424
ltoes -20.74887047780659
rfemur 12.38043539011542 5.458658888417583 31.27142073324924
rtibia 29.02917849526685
rfoot 24.32035727879611 -7.507269918925488
rtoes -4.2021502011403165
lowerback nan 0.7594716322249326 3.2791174929773304
upperback -2.1811237962115597 1.2831577157889984 1.6138136586823981
thorax -9.58519640675264 0.7086403957009654 0.4212440250029057
lowerneck -18.325719021981378 -4.696040685533775 -2.979494317887693
upperneck 13.389411227613197 -5.406362644363553 3.280536302792683
head 7.377283941396997 -2.6346659047356367 1.0643290415216224
lclavicle -2.481674474418709e-14 2.5109768632201678e-14
lhumerus -66.70269408040639 -1.300086894328392 85.79132307941732
lradius 109.00868014427867
lwrist 29.809426662390624
lhand -21.844074345994773 4.247831617199482
lfingers nan
lthumb 4.84593858874692 34.48185180697087
rclavicle -2.5780989385407e-14 2.379821144180201e-14
rhumerus -39.16171579625735 18.327935751740583 -94.1427070076394
rradius 128.01196197684106
rwrist -23.23650333295666
rhand -20.016273266323264 nan
rfingers nan
rthumb 6.3773105930131235 9.786672045873491
31
root 0.572098901042596 18.3674800368352 -16.433525930647516 6.010522443601474 2.4177632257884785 -1.9846887608593227
lfemur -35.933341532784624 -5.416119982124668 -17.275190139820676
ltibia 39.728963080610924
lfoot 6.291590402879083 -8.393210881179115
ltoes -21.687806989412977
rfemur 12.081367556484029 5.903253483246516 32.021631605112454
rtibia 31.358986138560233
rfoot 25.15826750884139 -7.760151187456229
rtoes 0.9594487201436976
lowerback nan 0.6774089808126006 3.408857109011545
upperback -2.3113598796667976 1.2461247494345318 1.5844001691785046
thorax -9.665474784380871 0.7279550104252739 0.41904019930610603
lowerneck -18.650720007533156 -4.6994109811248235 -2.9176775147924916
upperneck 13.430189610836884 -5.320965770896145 3.3083832814136405
head 7.456104236093962 -2.632516988620317 1.0601570518034102
lclavicle -4.6568496088992065e-14 -5.6561100527989285e-15
lhumerus -66.49891592558117 -1.142214754156945 85.40898359097238
lradius 109.45201322274329
lwrist 29.639637273106118
lhand -22.771170483695546 4.8699309552287255
lfingers nan
lthumb 3.97626691700229 35.146322228879534
rclavicle -4.7326559629993905e-14 -7.133260472744381e-15
rhumerus -40.145508603886455 18.753513576574505 -95.294133297302
rradius 127.89789029206281
rwrist -14.657890177980402
rhand -25.155682062919052 nan
rfingers nan
rthumb 1.3587220068200905 2.2022183675150764
